<svg xmlns="http://www.w3.org/2000/svg" class="icons">
  
  <symbol id="icon-contact" viewBox="0 0 512 512">
    <title>Contact</title>
    <path d="M170.544,239.052L50,146.454v213.142L170.544,239.052z M460.928,103.407H51.416l204.593,157.162 L460.928,103.407z M313.355,260.696l-57.364,43.994l-57.454-44.135L50.5,408.593h410.751L313.355,260.696z M341.367,239.212 L462,359.845V146.693L341.367,239.212z" />
  </symbol>
  
  <symbol id="icon-facebook" viewBox="0 0 512 512">
    <title>Facebook</title>
    <path d="M204.067,184.692h-43.144v70.426h43.144V462h82.965V254.238h57.882l6.162-69.546h-64.044 c0,0,0-25.97,0-39.615c0-16.398,3.302-22.89,19.147-22.89c12.766,0,44.896,0,44.896,0V50c0,0-47.326,0-57.441,0 c-61.734,0-89.567,27.179-89.567,79.231C204.067,174.566,204.067,184.692,204.067,184.692z" />
  </symbol>
  
  <symbol id="icon-googleplus" viewBox="0 0 512 512">
    <title>Google+</title>
    <path d="M462,141.347h-54.621v54.622h-27.311v-54.622h-54.622v-27.311h54.622V59.416h27.311v54.621H462V141.347z M307.583,367.26 c0,40.943-37.384,90.787-131.434,90.787C107.365,458.047,50,428.379,50,378.478c0-38.514,24.383-88.511,138.323-88.511 c-16.922-13.792-21.075-33.077-10.733-53.959c-66.714,0-100.879-39.222-100.879-89.023c0-48.731,36.242-93.032,110.15-93.032 c18.66,0,118.398,0,118.398,0l-26.457,27.77h-31.079c21.925,12.562,33.586,38.433,33.586,66.949 c0,26.175-14.413,47.375-34.983,63.279c-36.503,28.222-27.158,43.98,11.087,71.872C295.121,312.074,307.583,333.882,307.583,367.26 z M233.738,150.453c-5.506-41.905-32.806-76.284-64.704-77.243c-31.909-0.949-53.309,31.119-47.798,73.035 c5.509,41.905,35.834,71.178,67.749,72.139C220.882,219.333,239.242,192.363,233.738,150.453z M266.631,371.463 c0-34.466-31.441-67.317-84.192-67.317c-47.542-0.523-87.832,30.042-87.832,65.471c0,36.154,34.335,66.25,81.879,66.25 C237.267,435.866,266.631,407.617,266.631,371.463z" />
  </symbol>
  
  <symbol id="icon-home" viewBox="0 0 512 512">
    <title>Home</title>
    <path d="M257.122,165.188L414.22,301.287v143.779H300.098v-82.955h-85.953v82.955H100.023V302.369L257.122,165.188z M257.086,128.15l174.271,153.27L462,250.776L257.158,66.934L50,252.118l30.571,30.716L257.086,128.15z" />
  </symbol>
  
  <symbol id="icon-instagram" viewBox="0 0 512 512">
    <title>Instagram</title>
    <path fill-rule="evenodd" clip-rule="evenodd" d="M414.474,224.292h-35.869 c2.613,10.145,4.156,20.744,4.156,31.699c0,70.023-56.752,126.773-126.761,126.773s-126.763-56.75-126.763-126.773 c0-10.955,1.549-21.555,4.162-31.699H97.53V398.61c0,8.742,7.096,15.832,15.86,15.832h285.219c8.766,0,15.864-7.09,15.864-15.832 V224.292z M414.474,113.378c0-8.75-7.099-15.846-15.864-15.846h-47.526c-8.756,0-15.846,7.096-15.846,15.846v47.545 c0,8.744,7.09,15.846,15.846,15.846h47.526c8.766,0,15.864-7.102,15.864-15.846V113.378z M256,176.769 c-43.763,0-79.233,35.463-79.233,79.223c0,43.756,35.471,79.24,79.233,79.24c43.759,0,79.237-35.484,79.237-79.24 C335.237,212.231,299.759,176.769,256,176.769 M414.474,461.999H97.53c-26.246,0-47.53-21.289-47.53-47.557V97.532 c0-26.254,21.284-47.531,47.53-47.531h316.943c26.25,0,47.526,21.277,47.526,47.531v316.91 C462,440.71,440.724,461.999,414.474,461.999" />
  </symbol>
  
  <symbol id="icon-twitter" viewBox="0 0 512 512">
    <title>Twitter</title>
    <path d="M462,128.223c-15.158,6.724-31.449,11.269-48.547,13.31c17.449-10.461,30.854-27.025,37.164-46.764 c-16.333,9.687-34.422,16.721-53.676,20.511c-15.418-16.428-37.386-26.691-61.698-26.691c-54.56,0-94.668,50.916-82.337,103.787 c-70.25-3.524-132.534-37.177-174.223-88.314c-22.142,37.983-11.485,87.691,26.158,112.85c-13.854-0.438-26.891-4.241-38.285-10.574 c-0.917,39.162,27.146,75.781,67.795,83.949c-11.896,3.237-24.926,3.978-38.17,1.447c10.754,33.58,41.972,58.018,78.96,58.699 C139.604,378.282,94.846,390.721,50,385.436c37.406,23.982,81.837,37.977,129.571,37.977c156.932,0,245.595-132.551,240.251-251.435 C436.339,160.061,450.668,145.174,462,128.223z" />
  </symbol>
  
  <symbol id="icon-youtube" viewBox="0 0 512 512">
    <title>YouTube</title>
    <path id="youtube-new-icon" d="M458.388,180.186c-6.477-55.046-28.296-62.633-71.718-65.586c-61.736-4.2-199.561-4.203-261.34,0 c-43.421,2.954-65.241,10.541-71.717,65.586c-4.809,40.867-4.825,110.619,0,151.627c6.477,55.046,28.296,62.633,71.717,65.588 c61.779,4.202,199.604,4.199,261.34,0c43.422-2.955,65.241-10.542,71.718-65.588C463.196,290.946,463.212,221.195,458.388,180.186z M214.974,313.524V198.602l110.208,57.462L214.974,313.524z" />
  </symbol>
  
</svg>