<svg xmlns="http://www.w3.org/2000/svg" class="icons">
  
  <symbol id="icon-facebook" viewBox="0 0 512 512">
    <title>Facebook</title>
    <path d="M204.067,184.692h-43.144v70.426h43.144V462h82.965V254.238h57.882l6.162-69.546h-64.044 c0,0,0-25.97,0-39.615c0-16.398,3.302-22.89,19.147-22.89c12.766,0,44.896,0,44.896,0V50c0,0-47.326,0-57.441,0 c-61.734,0-89.567,27.179-89.567,79.231C204.067,174.566,204.067,184.692,204.067,184.692z"/>
  </symbol>
  
  <symbol id="icon-twitter" viewBox="0 0 512 512">
    <title>Twitter</title>
    <path d="M462,128.223c-15.158,6.724-31.449,11.269-48.547,13.31c17.449-10.461,30.854-27.025,37.164-46.764 c-16.333,9.687-34.422,16.721-53.676,20.511c-15.418-16.428-37.386-26.691-61.698-26.691c-54.56,0-94.668,50.916-82.337,103.787 c-70.25-3.524-132.534-37.177-174.223-88.314c-22.142,37.983-11.485,87.691,26.158,112.85c-13.854-0.438-26.891-4.241-38.285-10.574 c-0.917,39.162,27.146,75.781,67.795,83.949c-11.896,3.237-24.926,3.978-38.17,1.447c10.754,33.58,41.972,58.018,78.96,58.699 C139.604,378.282,94.846,390.721,50,385.436c37.406,23.982,81.837,37.977,129.571,37.977c156.932,0,245.595-132.551,240.251-251.435 C436.339,160.061,450.668,145.174,462,128.223z"/>
  </symbol>
  
  <symbol id="icon-youtube" viewBox="0 0 512 512">
    <title>YouTube</title>
    <path id="youtube-new-icon" d="M458.388,180.186c-6.477-55.046-28.296-62.633-71.718-65.586c-61.736-4.2-199.561-4.203-261.34,0 c-43.421,2.954-65.241,10.541-71.717,65.586c-4.809,40.867-4.825,110.619,0,151.627c6.477,55.046,28.296,62.633,71.717,65.588 c61.779,4.202,199.604,4.199,261.34,0c43.422-2.955,65.241-10.542,71.718-65.588C463.196,290.946,463.212,221.195,458.388,180.186z M214.974,313.524V198.602l110.208,57.462L214.974,313.524z"/>
  </symbol>
  
</svg>